<svg width="482" height="107" viewBox="0 0 482 107" fill="none" xmlns="http://www.w3.org/2000/svg">
<path d="M205.031 41.1562L188.812 72H184.102L202.664 37.875H205.688L205.031 41.1562ZM208.922 72L203.273 40.6406L203.719 37.875H206.531L213.258 72H208.922ZM210.492 59.3672L209.836 63.0703H191.203L191.859 59.3672H210.492ZM223.688 37.875L234.375 37.8984C236.453 37.9453 238.289 38.3438 239.883 39.0938C241.477 39.8438 242.688 40.9531 243.516 42.4219C244.359 43.875 244.688 45.7109 244.5 47.9297C244.344 49.6953 243.844 51.2188 243 52.5C242.172 53.7656 241.102 54.8281 239.789 55.6875C238.477 56.5312 237.023 57.2031 235.43 57.7031L234.117 58.1719H223.523L224.133 54.4922L231.656 54.5156C233.031 54.5156 234.32 54.2656 235.523 53.7656C236.742 53.2656 237.758 52.5312 238.57 51.5625C239.398 50.5781 239.906 49.3672 240.094 47.9297C240.266 46.5547 240.133 45.4062 239.695 44.4844C239.258 43.5625 238.57 42.8594 237.633 42.375C236.711 41.8906 235.594 41.6328 234.281 41.6016L227.461 41.5781L222.188 72H217.758L223.688 37.875ZM237.234 72L231.867 56.5312L236.227 56.5078L241.945 71.6953L241.922 72H237.234ZM268.172 68.3203L267.516 72H249.961L250.594 68.3203H268.172ZM256.805 37.875L250.875 72H246.445L252.375 37.875H256.805ZM268.57 52.5469L267.938 56.2266H252.68L253.336 52.5469H268.57ZM273.211 37.875L272.555 41.5781H255.234L255.891 37.875H273.211ZM294.703 61.1719L299.039 61.125C298.57 63.4688 297.688 65.5 296.391 67.2188C295.109 68.9375 293.492 70.2578 291.539 71.1797C289.602 72.1016 287.43 72.5312 285.023 72.4688C282.867 72.4219 281.055 71.9297 279.586 70.9922C278.133 70.0547 276.992 68.8203 276.164 67.2891C275.352 65.7578 274.812 64.0703 274.547 62.2266C274.297 60.3828 274.297 58.5234 274.547 56.6484L275.039 53.25C275.352 51.1875 275.914 49.2031 276.727 47.2969C277.555 45.375 278.625 43.6641 279.938 42.1641C281.266 40.6641 282.828 39.4844 284.625 38.625C286.438 37.7656 288.492 37.3594 290.789 37.4062C293.086 37.4531 295.008 37.9688 296.555 38.9531C298.102 39.9375 299.273 41.2812 300.07 42.9844C300.883 44.6875 301.32 46.6406 301.383 48.8438H297.023C296.977 47.4062 296.75 46.1094 296.344 44.9531C295.938 43.7969 295.273 42.875 294.352 42.1875C293.43 41.5 292.18 41.1328 290.602 41.0859C288.883 41.0391 287.375 41.3594 286.078 42.0469C284.797 42.7344 283.703 43.6719 282.797 44.8594C281.891 46.0312 281.164 47.3438 280.617 48.7969C280.07 50.25 279.68 51.7188 279.445 53.2031L278.93 56.6719C278.758 57.9062 278.695 59.2188 278.742 60.6094C278.789 61.9844 279.016 63.2891 279.422 64.5234C279.844 65.7422 280.516 66.75 281.438 67.5469C282.375 68.3281 283.641 68.7422 285.234 68.7891C286.984 68.8516 288.477 68.5781 289.711 67.9688C290.945 67.3594 291.969 66.4766 292.781 65.3203C293.594 64.1484 294.234 62.7656 294.703 61.1719ZM320.906 41.1562L304.688 72H299.977L318.539 37.875H321.562L320.906 41.1562ZM324.797 72L319.148 40.6406L319.594 37.875H322.406L329.133 72H324.797ZM326.367 59.3672L325.711 63.0703H307.078L307.734 59.3672H326.367ZM409.5 53.8594L409.219 55.9922C408.906 58.0859 408.344 60.125 407.531 62.1094C406.734 64.0938 405.68 65.875 404.367 67.4531C403.055 69.0312 401.484 70.2734 399.656 71.1797C397.828 72.0859 395.734 72.5156 393.375 72.4688C391.125 72.4219 389.242 71.9141 387.727 70.9453C386.227 69.9609 385.055 68.6719 384.211 67.0781C383.383 65.4844 382.836 63.7266 382.57 61.8047C382.32 59.8828 382.32 57.9531 382.57 56.0156L382.875 53.8828C383.172 51.7891 383.727 49.7578 384.539 47.7891C385.367 45.8047 386.438 44.0234 387.75 42.4453C389.078 40.8672 390.656 39.625 392.484 38.7188C394.312 37.7969 396.391 37.3594 398.719 37.4062C401 37.4531 402.891 37.9609 404.391 38.9297C405.906 39.8984 407.078 41.1797 407.906 42.7734C408.734 44.3672 409.266 46.125 409.5 48.0469C409.75 49.9688 409.75 51.9062 409.5 53.8594ZM404.836 56.0156L405.141 53.7891C405.312 52.4609 405.375 51.0781 405.328 49.6406C405.281 48.2031 405.039 46.8594 404.602 45.6094C404.18 44.3438 403.484 43.3125 402.516 42.5156C401.547 41.7188 400.211 41.2891 398.508 41.2266C396.773 41.1797 395.25 41.5234 393.938 42.2578C392.625 42.9766 391.508 43.9609 390.586 45.2109C389.68 46.4453 388.953 47.8125 388.406 49.3125C387.859 50.8125 387.477 52.3125 387.258 53.8125L386.953 56.0391C386.781 57.3359 386.719 58.7109 386.766 60.1641C386.828 61.6016 387.078 62.9531 387.516 64.2188C387.953 65.4844 388.656 66.5312 389.625 67.3594C390.594 68.1719 391.914 68.6094 393.586 68.6719C395.367 68.7188 396.914 68.3828 398.227 67.6641C399.539 66.9297 400.641 65.9453 401.531 64.7109C402.438 63.4766 403.156 62.1016 403.688 60.5859C404.234 59.0703 404.617 57.5469 404.836 56.0156ZM423.609 37.875L417.68 72H413.273L419.203 37.875H423.609ZM457.031 37.875L451.102 72H446.812L434.625 45.4922L430.031 72H425.602L431.531 37.875H435.797L448.031 64.4531L452.648 37.875H457.031Z" fill="white"/>
<ellipse cx="60" cy="78.5" rx="53" ry="28.5" fill="#B7C60D"/>
<rect x="7" y="60" width="106" height="19" fill="#B7C60D"/>
<ellipse cx="60" cy="60.5" rx="53" ry="28.5" fill="#FFF2A7"/>
<ellipse cx="53" cy="59.5" rx="53" ry="28.5" fill="#B7C60D"/>
<rect y="41" width="106" height="19" fill="#B7C60D"/>
<ellipse cx="53" cy="41.5" rx="53" ry="28.5" fill="#FFF2A7"/>
<ellipse cx="68" cy="46.5" rx="53" ry="28.5" fill="#B7C60D"/>
<rect x="15" y="28" width="106" height="19" fill="#B7C60D"/>
<ellipse cx="68" cy="28.5" rx="53" ry="28.5" fill="#FFF2A7"/>
<g clip-path="url(#clip0_3_5)">
<g filter="url(#filter0_i_3_5)">
<path d="M60.9684 33.6156L65.1161 34.8801C63.9615 36.9729 62.5066 38.6428 60.7512 39.8897C59.0108 41.1414 57.0705 41.9118 54.9301 42.2009C52.8047 42.4947 50.6045 42.2485 48.3294 41.4624C46.2879 40.7666 44.7087 39.7501 43.5916 38.4129C42.4893 37.0804 41.7747 35.5592 41.4476 33.8494C41.1353 32.1442 41.131 30.3727 41.4345 28.5348C41.7529 26.7017 42.3143 24.9291 43.1188 23.2171L44.6142 20.1259C45.5349 18.254 46.6703 16.5321 48.0205 14.9602C49.3902 13.3781 50.9272 12.0702 52.6314 11.0365C54.3504 10.0075 56.1962 9.35471 58.1687 9.07801C60.1561 8.80603 62.2375 9.03916 64.413 9.77739C66.5886 10.5156 68.265 11.5875 69.4425 12.993C70.6199 14.3985 71.3313 16.0334 71.5768 17.8976C71.8371 19.7666 71.6644 21.7607 71.0588 23.8798L66.9029 22.5635C67.2922 21.1789 67.4678 19.8742 67.4297 18.6492C67.3915 17.4243 67.0368 16.3449 66.3656 15.4112C65.6943 14.4774 64.6135 13.7499 63.1232 13.2287C61.4988 12.665 59.9647 12.5151 58.5208 12.7789C57.0917 13.0475 55.7659 13.611 54.5434 14.4694C53.3256 15.3129 52.2367 16.3448 51.2766 17.5649C50.3164 18.7851 49.5006 20.0674 48.8289 21.4117L47.29 24.5628C46.7534 25.6877 46.2975 26.92 45.9223 28.2599C45.5518 29.5849 45.3738 30.8971 45.3884 32.1965C45.4226 33.4858 45.7588 34.6494 46.397 35.6874C47.0548 36.7153 48.1364 37.4922 49.6416 38.0181C51.291 38.6061 52.7961 38.796 54.1569 38.5878C55.5176 38.3796 56.7599 37.847 57.8836 36.9901C59.012 36.1182 60.0403 34.9934 60.9684 33.6156ZM94.9659 14.1442L91.7126 20.6122L88.4281 19.5719L91.6814 13.1039L94.9659 14.1442ZM77.3094 48.6991L74.4815 54.3676L71.2193 53.3344L74.0473 47.6659L77.3094 48.6991ZM85.0024 43.1948C85.4809 42.1499 85.6072 41.1819 85.3813 40.2909C85.1555 39.3998 84.7182 38.5811 84.0695 37.8348C83.4256 37.0736 82.711 36.3801 81.9258 35.7544C80.6155 34.7166 79.4942 33.5993 78.5621 32.4026C77.6448 31.2107 77.0495 29.9076 76.7763 28.4935C76.5179 27.084 76.7243 25.5268 77.3955 23.8217C78.124 21.9873 79.182 20.5359 80.5694 19.4675C81.9567 18.399 83.5257 17.7405 85.2762 17.4918C87.0268 17.2432 88.8185 17.4337 90.6514 18.0634C92.1762 18.5792 93.3852 19.2899 94.2785 20.1956C95.1866 21.1061 95.8075 22.1468 96.1414 23.3179C96.4948 24.4788 96.6 25.725 96.4569 27.0565C96.3139 28.3879 95.9759 29.7396 95.443 31.1115L91.4212 29.8376C91.7261 29.0819 91.9515 28.2928 92.0972 27.4703C92.2626 26.6376 92.2951 25.8366 92.1946 25.0672C92.0941 24.2978 91.812 23.6102 91.3482 23.0044C90.8845 22.3986 90.1882 21.9322 89.2592 21.6052C88.1514 21.2216 87.0897 21.1066 86.0741 21.2602C85.0733 21.4185 84.1774 21.8149 83.3864 22.4494C82.5954 23.084 81.9583 23.9311 81.4751 24.991C80.9926 26.1002 80.8569 27.098 81.0679 27.9843C81.2937 28.8753 81.7384 29.6964 82.402 30.4474C83.0656 31.1985 83.8076 31.9088 84.6281 32.5784C85.9188 33.6264 87.0153 34.7441 87.9176 35.9313C88.8396 37.1084 89.4224 38.3993 89.6658 39.804C89.9289 41.1985 89.7272 42.7409 89.0608 44.431C88.2749 46.3948 87.1385 47.8869 85.6515 48.9074C84.1646 49.928 82.4859 50.519 80.6155 50.6805C78.7646 50.8318 76.8906 50.5906 74.9934 49.9569C73.4984 49.4506 72.2552 48.7701 71.264 47.9152C70.2923 47.0502 69.5682 46.0505 69.0916 44.9162C68.6346 43.7716 68.4184 42.5395 68.4431 41.2197C68.4873 39.8897 68.7853 38.509 69.3371 37.0775L73.4036 38.3656C73.0657 39.2255 72.8485 40.0664 72.7521 40.8881C72.6754 41.6997 72.7363 42.4648 72.9348 43.1833C73.153 43.8916 73.5356 44.5208 74.0824 45.071C74.649 45.611 75.4042 46.0469 76.348 46.3786C77.4903 46.7568 78.6218 46.9103 79.7424 46.8391C80.8827 46.7578 81.9154 46.4211 82.8405 45.829C83.7703 45.2221 84.4909 44.344 85.0024 43.1948Z" fill="#FFF2A7"/>
</g>
</g>
<path d="M366.273 65.0547L376.328 64.9141C375.883 68.6875 374.605 71.9219 372.496 74.6172C370.41 77.2891 367.785 79.3281 364.621 80.7344C361.457 82.1172 358.023 82.7734 354.32 82.7031C350.898 82.6328 348.016 81.9062 345.672 80.5234C343.328 79.1172 341.488 77.2422 340.152 74.8984C338.816 72.5547 337.938 69.9414 337.516 67.0586C337.094 64.1758 337.07 61.2227 337.445 58.1992L337.938 54.6484C338.406 51.4609 339.262 48.3789 340.504 45.4023C341.77 42.4258 343.422 39.7773 345.461 37.457C347.5 35.1367 349.914 33.3086 352.703 31.9727C355.492 30.6367 358.656 30.0039 362.195 30.0742C365.898 30.1445 369.027 30.9414 371.582 32.4648C374.16 33.9648 376.141 36.0625 377.523 38.7578C378.93 41.4297 379.715 44.5586 379.879 48.1445L369.648 48.1094C369.672 46.2109 369.438 44.5469 368.945 43.1172C368.477 41.6641 367.656 40.5391 366.484 39.7422C365.312 38.9219 363.695 38.4766 361.633 38.4062C359.383 38.3359 357.473 38.7812 355.902 39.7422C354.332 40.7031 353.031 41.9922 352 43.6094C350.992 45.2266 350.195 46.9961 349.609 48.918C349.047 50.8398 348.625 52.7266 348.344 54.5781L347.852 58.2344C347.664 59.7578 347.535 61.4453 347.465 63.2969C347.395 65.125 347.547 66.8711 347.922 68.5352C348.297 70.1992 349.023 71.582 350.102 72.6836C351.18 73.7617 352.785 74.3359 354.918 74.4062C357.027 74.4766 358.844 74.1484 360.367 73.4219C361.914 72.6953 363.168 71.6172 364.129 70.1875C365.113 68.7578 365.828 67.0469 366.273 65.0547Z" fill="#FFF2A7"/>
<path d="M366.273 65.0547L366.259 64.0548L365.47 64.0658L365.298 64.8365L366.273 65.0547ZM376.328 64.9141L377.321 65.0313L377.455 63.8982L376.314 63.9142L376.328 64.9141ZM372.496 74.6172L371.709 74.0009L371.708 74.0018L372.496 74.6172ZM364.621 80.7344L365.022 81.6507L365.027 81.6482L364.621 80.7344ZM354.32 82.7031L354.3 83.7029L354.301 83.7029L354.32 82.7031ZM345.672 80.5234L345.157 81.381L345.164 81.3847L345.672 80.5234ZM337.445 58.1992L336.455 58.0619L336.454 58.069L336.453 58.0761L337.445 58.1992ZM337.938 54.6484L336.948 54.5029L336.947 54.5111L337.938 54.6484ZM340.504 45.4023L339.584 45.011L339.581 45.0172L340.504 45.4023ZM362.195 30.0742L362.175 31.074L362.176 31.074L362.195 30.0742ZM371.582 32.4648L371.07 33.3238L371.079 33.3292L371.582 32.4648ZM377.523 38.7578L376.634 39.2143L376.639 39.2236L377.523 38.7578ZM379.879 48.1445L379.875 49.1445L380.926 49.1481L380.878 48.0988L379.879 48.1445ZM369.648 48.1094L368.649 48.097L368.636 49.1059L369.645 49.1094L369.648 48.1094ZM368.945 43.1172L367.994 43.4242L367.997 43.4335L368 43.4427L368.945 43.1172ZM366.484 39.7422L365.911 40.5615L365.922 40.5691L366.484 39.7422ZM361.633 38.4062L361.667 37.4068L361.664 37.4067L361.633 38.4062ZM352 43.6094L351.157 43.0717L351.151 43.0805L352 43.6094ZM349.609 48.918L348.653 48.6263L348.65 48.6371L349.609 48.918ZM348.344 54.5781L347.355 54.4279L347.354 54.4363L347.353 54.4447L348.344 54.5781ZM347.852 58.2344L346.86 58.101L346.859 58.1122L347.852 58.2344ZM347.465 63.2969L348.464 63.3353L348.464 63.3348L347.465 63.2969ZM350.102 72.6836L349.387 73.3831L349.394 73.3907L350.102 72.6836ZM354.918 74.4062L354.951 73.4068L354.951 73.4068L354.918 74.4062ZM360.367 73.4219L359.942 72.5167L359.937 72.5193L360.367 73.4219ZM364.129 70.1875L363.305 69.6204L363.299 69.6297L364.129 70.1875ZM366.287 66.0546L376.342 65.914L376.314 63.9142L366.259 64.0548L366.287 66.0546ZM375.335 64.7969C374.909 68.4089 373.693 71.4655 371.709 74.0009L373.284 75.2335C375.518 72.3783 376.857 68.9661 377.321 65.0313L375.335 64.7969ZM371.708 74.0018C369.725 76.5415 367.232 78.4795 364.215 79.8206L365.027 81.6482C368.338 80.1768 371.095 78.0366 373.284 75.2326L371.708 74.0018ZM364.221 79.8181C361.198 81.139 357.909 81.7711 354.339 81.7033L354.301 83.7029C358.138 83.7758 361.716 83.0954 365.022 81.6507L364.221 79.8181ZM354.341 81.7033C351.047 81.6357 348.342 80.938 346.18 79.6622L345.164 81.3847C347.689 82.8745 350.75 83.63 354.3 83.7029L354.341 81.7033ZM346.186 79.6659C343.988 78.3468 342.271 76.5958 341.021 74.4032L339.284 75.3936C340.706 77.8886 342.668 79.8876 345.157 81.3809L346.186 79.6659ZM341.021 74.4032C339.752 72.1761 338.91 69.6832 338.505 66.9138L336.526 67.2034C336.965 70.1996 337.881 72.9332 339.284 75.3936L341.021 74.4032ZM338.505 66.9138C338.097 64.1237 338.073 61.2608 338.438 58.3223L336.453 58.0761C336.067 61.1845 336.091 64.2278 336.526 67.2034L338.505 66.9138ZM338.436 58.3365L338.928 54.7857L336.947 54.5111L336.455 58.0619L338.436 58.3365ZM338.927 54.7939C339.383 51.6889 340.217 48.6873 341.427 45.7875L339.581 45.0172C338.307 48.0705 337.429 51.233 336.948 54.5029L338.927 54.7939ZM341.424 45.7936C342.65 42.9105 344.247 40.3537 346.212 38.1171L344.71 36.7969C342.597 39.201 340.889 41.9411 339.584 45.011L341.424 45.7936ZM346.212 38.1171C348.162 35.8982 350.468 34.1523 353.135 32.8745L352.271 31.0708C349.361 32.4649 346.838 34.3752 344.71 36.7969L346.212 38.1171ZM353.135 32.8745C355.764 31.6153 358.77 31.0064 362.175 31.074L362.215 29.0744C358.543 29.0015 355.22 29.6582 352.271 31.0708L353.135 32.8745ZM362.176 31.074C365.748 31.1418 368.697 31.9087 371.07 33.3237L372.094 31.606C369.358 29.9741 366.049 29.1472 362.214 29.0744L362.176 31.074ZM371.079 33.3292C373.489 34.7314 375.337 36.6863 376.634 39.2143L378.413 38.3013C376.945 35.4387 374.831 33.1982 372.085 31.6005L371.079 33.3292ZM376.639 39.2236C377.965 41.7432 378.721 44.7236 378.88 48.1902L380.878 48.0988C380.708 44.3936 379.895 41.1161 378.408 38.2921L376.639 39.2236ZM379.882 47.1445L369.652 47.1094L369.645 49.1094L379.875 49.1445L379.882 47.1445ZM370.648 48.1217C370.673 46.1365 370.429 44.3538 369.891 42.7917L368 43.4427C368.446 44.74 368.671 46.2854 368.649 48.097L370.648 48.1217ZM369.897 42.8102C369.366 41.1627 368.417 39.8472 367.047 38.9153L365.922 40.5691C366.895 41.2309 367.588 42.1654 367.994 43.4242L369.897 42.8102ZM367.058 38.923C365.672 37.9527 363.841 37.481 361.667 37.4068L361.599 39.4057C363.549 39.4722 364.953 39.891 365.911 40.5614L367.058 38.923ZM361.664 37.4067C359.263 37.3317 357.151 37.8059 355.38 38.8892L356.424 40.5952C357.795 39.7566 359.503 39.3402 361.602 39.4058L361.664 37.4067ZM355.38 38.8892C353.675 39.9328 352.266 41.3319 351.157 43.0717L352.843 44.147C353.796 42.6525 354.989 41.4734 356.424 40.5952L355.38 38.8892ZM351.151 43.0805C350.095 44.7756 349.263 46.6256 348.653 48.6263L350.566 49.2096C351.128 47.3666 351.889 45.6775 352.849 44.1383L351.151 43.0805ZM348.65 48.6371C348.075 50.5989 347.643 52.5293 347.355 54.4279L349.332 54.7283C349.607 52.9238 350.018 51.0808 350.569 49.1989L348.65 48.6371ZM347.353 54.4447L346.861 58.101L348.843 58.3678L349.335 54.7115L347.353 54.4447ZM346.859 58.1122C346.667 59.6686 346.537 61.3848 346.466 63.2589L348.464 63.3348C348.534 61.5059 348.661 59.847 348.844 58.3565L346.859 58.1122ZM346.466 63.2584C346.392 65.1671 346.551 67.0003 346.946 68.755L348.897 68.3153C348.543 66.7418 348.397 65.0829 348.464 63.3353L346.466 63.2584ZM346.946 68.755C347.358 70.5801 348.165 72.135 349.387 73.3831L350.816 71.9841C349.881 71.029 349.236 69.8183 348.897 68.3153L346.946 68.755ZM349.394 73.3907C350.713 74.7093 352.6 75.3304 354.885 75.4057L354.951 73.4068C352.97 73.3415 351.646 72.8141 350.809 71.9765L349.394 73.3907ZM354.885 75.4057C357.115 75.48 359.098 75.1351 360.798 74.3245L359.937 72.5193C358.59 73.1617 356.94 73.4731 354.951 73.4068L354.885 75.4057ZM360.792 74.327C362.504 73.5228 363.898 72.324 364.959 70.7453L363.299 69.6297C362.438 70.9103 361.324 71.8678 359.942 72.5167L360.792 74.327ZM364.953 70.7546C366.021 69.2026 366.781 67.3684 367.249 65.2728L365.298 64.8365C364.875 66.7254 364.205 68.313 363.305 69.6204L364.953 70.7546Z" fill="#9CA80F"/>
<path d="M172.273 64.0547L182.328 63.9141C181.883 67.6875 180.605 70.9219 178.496 73.6172C176.41 76.2891 173.785 78.3281 170.621 79.7344C167.457 81.1172 164.023 81.7734 160.32 81.7031C156.898 81.6328 154.016 80.9062 151.672 79.5234C149.328 78.1172 147.488 76.2422 146.152 73.8984C144.816 71.5547 143.938 68.9414 143.516 66.0586C143.094 63.1758 143.07 60.2227 143.445 57.1992L143.938 53.6484C144.406 50.4609 145.262 47.3789 146.504 44.4023C147.77 41.4258 149.422 38.7773 151.461 36.457C153.5 34.1367 155.914 32.3086 158.703 30.9727C161.492 29.6367 164.656 29.0039 168.195 29.0742C171.898 29.1445 175.027 29.9414 177.582 31.4648C180.16 32.9648 182.141 35.0625 183.523 37.7578C184.93 40.4297 185.715 43.5586 185.879 47.1445L175.648 47.1094C175.672 45.2109 175.438 43.5469 174.945 42.1172C174.477 40.6641 173.656 39.5391 172.484 38.7422C171.312 37.9219 169.695 37.4766 167.633 37.4062C165.383 37.3359 163.473 37.7812 161.902 38.7422C160.332 39.7031 159.031 40.9922 158 42.6094C156.992 44.2266 156.195 45.9961 155.609 47.918C155.047 49.8398 154.625 51.7266 154.344 53.5781L153.852 57.2344C153.664 58.7578 153.535 60.4453 153.465 62.2969C153.395 64.125 153.547 65.8711 153.922 67.5352C154.297 69.1992 155.023 70.582 156.102 71.6836C157.18 72.7617 158.785 73.3359 160.918 73.4062C163.027 73.4766 164.844 73.1484 166.367 72.4219C167.914 71.6953 169.168 70.6172 170.129 69.1875C171.113 67.7578 171.828 66.0469 172.273 64.0547Z" fill="#FFF2A7"/>
<path d="M172.273 64.0547L172.259 63.0548L171.47 63.0658L171.298 63.8365L172.273 64.0547ZM182.328 63.9141L183.321 64.0313L183.455 62.8982L182.314 62.9142L182.328 63.9141ZM178.496 73.6172L177.709 73.0009L177.708 73.0018L178.496 73.6172ZM170.621 79.7344L171.022 80.6507L171.027 80.6482L170.621 79.7344ZM160.32 81.7031L160.3 82.7029L160.301 82.7029L160.32 81.7031ZM151.672 79.5234L151.157 80.381L151.164 80.3847L151.672 79.5234ZM143.445 57.1992L142.455 57.0619L142.454 57.069L142.453 57.0761L143.445 57.1992ZM143.938 53.6484L142.948 53.5029L142.947 53.5111L143.938 53.6484ZM146.504 44.4023L145.584 44.011L145.581 44.0172L146.504 44.4023ZM168.195 29.0742L168.175 30.074L168.176 30.074L168.195 29.0742ZM177.582 31.4648L177.07 32.3238L177.079 32.3292L177.582 31.4648ZM183.523 37.7578L182.634 38.2143L182.639 38.2236L183.523 37.7578ZM185.879 47.1445L185.875 48.1445L186.926 48.1481L186.878 47.0988L185.879 47.1445ZM175.648 47.1094L174.649 47.097L174.636 48.1059L175.645 48.1094L175.648 47.1094ZM174.945 42.1172L173.994 42.4242L173.997 42.4335L174 42.4427L174.945 42.1172ZM172.484 38.7422L171.911 39.5615L171.922 39.5691L172.484 38.7422ZM167.633 37.4062L167.667 36.4068L167.664 36.4067L167.633 37.4062ZM158 42.6094L157.157 42.0717L157.151 42.0805L158 42.6094ZM155.609 47.918L154.653 47.6263L154.65 47.6371L155.609 47.918ZM154.344 53.5781L153.355 53.4279L153.354 53.4363L153.353 53.4447L154.344 53.5781ZM153.852 57.2344L152.86 57.101L152.859 57.1122L153.852 57.2344ZM153.465 62.2969L154.464 62.3353L154.464 62.3348L153.465 62.2969ZM156.102 71.6836L155.387 72.3831L155.394 72.3907L156.102 71.6836ZM160.918 73.4062L160.951 72.4068L160.951 72.4068L160.918 73.4062ZM166.367 72.4219L165.942 71.5167L165.937 71.5193L166.367 72.4219ZM170.129 69.1875L169.305 68.6204L169.299 68.6297L170.129 69.1875ZM172.287 65.0546L182.342 64.914L182.314 62.9142L172.259 63.0548L172.287 65.0546ZM181.335 63.7969C180.909 67.4089 179.693 70.4655 177.709 73.0009L179.284 74.2335C181.518 71.3783 182.857 67.9661 183.321 64.0313L181.335 63.7969ZM177.708 73.0018C175.725 75.5415 173.232 77.4795 170.215 78.8206L171.027 80.6482C174.338 79.1768 177.095 77.0366 179.284 74.2326L177.708 73.0018ZM170.221 78.8181C167.198 80.139 163.909 80.7711 160.339 80.7033L160.301 82.7029C164.138 82.7758 167.716 82.0954 171.022 80.6507L170.221 78.8181ZM160.341 80.7033C157.047 80.6357 154.342 79.938 152.18 78.6622L151.164 80.3847C153.689 81.8745 156.75 82.63 160.3 82.7029L160.341 80.7033ZM152.186 78.6659C149.988 77.3468 148.271 75.5958 147.021 73.4032L145.284 74.3936C146.706 76.8886 148.668 78.8876 151.157 80.3809L152.186 78.6659ZM147.021 73.4032C145.752 71.1761 144.91 68.6832 144.505 65.9138L142.526 66.2034C142.965 69.1996 143.881 71.9332 145.284 74.3936L147.021 73.4032ZM144.505 65.9138C144.097 63.1237 144.073 60.2608 144.438 57.3223L142.453 57.0761C142.067 60.1845 142.091 63.2278 142.526 66.2034L144.505 65.9138ZM144.436 57.3365L144.928 53.7857L142.947 53.5111L142.455 57.0619L144.436 57.3365ZM144.927 53.7939C145.383 50.6889 146.217 47.6873 147.427 44.7875L145.581 44.0172C144.307 47.0705 143.429 50.233 142.948 53.5029L144.927 53.7939ZM147.424 44.7936C148.65 41.9105 150.247 39.3537 152.212 37.1171L150.71 35.7969C148.597 38.201 146.889 40.9411 145.584 44.011L147.424 44.7936ZM152.212 37.1171C154.162 34.8982 156.468 33.1523 159.135 31.8745L158.271 30.0708C155.361 31.4649 152.838 33.3752 150.71 35.7969L152.212 37.1171ZM159.135 31.8745C161.764 30.6153 164.77 30.0064 168.175 30.074L168.215 28.0744C164.543 28.0015 161.22 28.6582 158.271 30.0708L159.135 31.8745ZM168.176 30.074C171.748 30.1418 174.697 30.9087 177.07 32.3237L178.094 30.606C175.358 28.9741 172.049 28.1472 168.214 28.0744L168.176 30.074ZM177.079 32.3292C179.489 33.7314 181.337 35.6863 182.634 38.2143L184.413 37.3013C182.945 34.4387 180.831 32.1982 178.085 30.6005L177.079 32.3292ZM182.639 38.2236C183.965 40.7432 184.721 43.7236 184.88 47.1902L186.878 47.0988C186.708 43.3936 185.895 40.1161 184.408 37.2921L182.639 38.2236ZM185.882 46.1445L175.652 46.1094L175.645 48.1094L185.875 48.1445L185.882 46.1445ZM176.648 47.1217C176.673 45.1365 176.429 43.3538 175.891 41.7917L174 42.4427C174.446 43.74 174.671 45.2854 174.649 47.097L176.648 47.1217ZM175.897 41.8102C175.366 40.1627 174.417 38.8472 173.047 37.9153L171.922 39.5691C172.895 40.2309 173.588 41.1654 173.994 42.4242L175.897 41.8102ZM173.058 37.923C171.672 36.9527 169.841 36.481 167.667 36.4068L167.599 38.4057C169.549 38.4722 170.953 38.891 171.911 39.5614L173.058 37.923ZM167.664 36.4067C165.263 36.3317 163.151 36.8059 161.38 37.8892L162.424 39.5952C163.795 38.7566 165.503 38.3402 167.602 38.4058L167.664 36.4067ZM161.38 37.8892C159.675 38.9328 158.266 40.3319 157.157 42.0717L158.843 43.147C159.796 41.6525 160.989 40.4734 162.424 39.5952L161.38 37.8892ZM157.151 42.0805C156.095 43.7756 155.263 45.6256 154.653 47.6263L156.566 48.2096C157.128 46.3666 157.889 44.6775 158.849 43.1383L157.151 42.0805ZM154.65 47.6371C154.075 49.5989 153.643 51.5293 153.355 53.4279L155.332 53.7283C155.607 51.9238 156.018 50.0808 156.569 48.1989L154.65 47.6371ZM153.353 53.4447L152.861 57.101L154.843 57.3678L155.335 53.7115L153.353 53.4447ZM152.859 57.1122C152.667 58.6686 152.537 60.3848 152.466 62.2589L154.464 62.3348C154.534 60.5059 154.661 58.847 154.844 57.3565L152.859 57.1122ZM152.466 62.2584C152.392 64.1671 152.551 66.0003 152.946 67.755L154.897 67.3153C154.543 65.7418 154.397 64.0829 154.464 62.3353L152.466 62.2584ZM152.946 67.755C153.358 69.5801 154.165 71.135 155.387 72.3831L156.816 70.9841C155.881 70.029 155.236 68.8183 154.897 67.3153L152.946 67.755ZM155.394 72.3907C156.713 73.7093 158.6 74.3304 160.885 74.4057L160.951 72.4068C158.97 72.3415 157.646 71.8141 156.809 70.9765L155.394 72.3907ZM160.885 74.4057C163.115 74.48 165.098 74.1351 166.798 73.3245L165.937 71.5193C164.59 72.1617 162.94 72.4731 160.951 72.4068L160.885 74.4057ZM166.792 73.327C168.504 72.5228 169.898 71.324 170.959 69.7453L169.299 68.6297C168.438 69.9103 167.324 70.8678 165.942 71.5167L166.792 73.327ZM170.953 69.7546C172.021 68.2026 172.781 66.3684 173.249 64.2728L171.298 63.8365C170.875 65.7254 170.205 67.313 169.305 68.6204L170.953 69.7546Z" fill="#9CA80F"/>
<defs>
<filter id="filter0_i_3_5" x="36.6539" y="-0.0663757" width="63.7638" height="59.39" filterUnits="userSpaceOnUse" color-interpolation-filters="sRGB">
<feFlood flood-opacity="0" result="BackgroundImageFix"/>
<feBlend mode="normal" in="SourceGraphic" in2="BackgroundImageFix" result="shape"/>
<feColorMatrix in="SourceAlpha" type="matrix" values="0 0 0 0 0 0 0 0 0 0 0 0 0 0 0 0 0 0 127 0" result="hardAlpha"/>
<feOffset dy="1"/>
<feGaussianBlur stdDeviation="2"/>
<feComposite in2="hardAlpha" operator="arithmetic" k2="-1" k3="1"/>
<feColorMatrix type="matrix" values="0 0 0 0 0 0 0 0 0 0 0 0 0 0 0 0 0 0 0.25 0"/>
<feBlend mode="normal" in2="shape" result="effect1_innerShadow_3_5"/>
</filter>
<clipPath id="clip0_3_5">
<rect width="72" height="56" fill="white" transform="translate(37 3)"/>
</clipPath>
</defs>
</svg>
